<svg height="384pt" viewBox="0 -24 384 384" width="384pt" xmlns="http://www.w3.org/2000/svg"><path d="m368 96v208c0 8.800781-7.199219 16-16 16h-320c-8.800781 0-16-7.199219-16-16v-208c0-8.800781 7.199219-16 16-16h48v32c0 17.679688 14.320312 32 32 32 8.800781 0 16.800781-3.601562 22.640625-9.359375 5.757813-5.839844 9.359375-13.839844 9.359375-22.640625v-32h96v32c0 17.679688 14.320312 32 32 32 8.800781 0 16.800781-3.601562 22.640625-9.359375 5.757813-5.839844 9.359375-13.839844 9.359375-22.640625v-32h48c8.800781 0 16 7.199219 16 16zm0 0" fill="#4dd0e1"/><path d="m304 80v32c0 8.800781-3.601562 16.800781-9.359375 22.640625-5.839844 5.757813-13.839844 9.359375-22.640625 9.359375-17.679688 0-32-14.320312-32-32v-32zm0 0" fill="#ff7043"/><path d="m144 80v32c0 8.800781-3.601562 16.800781-9.359375 22.640625-5.839844 5.757813-13.839844 9.359375-22.640625 9.359375-17.679688 0-32-14.320312-32-32v-32zm0 0" fill="#ff7043"/><g fill="#012e52"><path d="m352 64h-80v-32c0-17.648438-14.351562-32-32-32h-96c-17.648438 0-32 14.351562-32 32v32h-80c-17.648438 0-32 14.351562-32 32v208c0 17.648438 14.351562 32 32 32h320c17.648438 0 32-14.351562 32-32v-208c0-17.648438-14.351562-32-32-32zm-96 32h32v16c0 4.246094-1.6875 8.296875-4.585938 11.238281-3.117187 3.074219-7.175781 4.761719-11.414062 4.761719-8.824219 0-16-7.175781-16-16zm-112-64h96v32h-96zm-48 64h32v16c0 4.246094-1.6875 8.296875-4.585938 11.238281-3.117187 3.074219-7.175781 4.761719-11.414062 4.761719-8.824219 0-16-7.175781-16-16zm256 208h-320v-208h32v16c0 26.472656 21.527344 48 48 48 12.703125 0 24.734375-4.960938 34.03125-14.128906 9.007812-9.136719 13.96875-21.160156 13.96875-33.871094v-16h64v16c0 26.472656 21.527344 48 48 48 12.703125 0 24.734375-4.960938 34.03125-14.128906 9.007812-9.136719 13.96875-21.160156 13.96875-33.871094v-16h32zm0 0"/><path d="m224 184h-16v-16c0-8.832031-7.167969-16-16-16s-16 7.167969-16 16v16h-16c-8.832031 0-16 7.167969-16 16s7.167969 16 16 16h16v16c0 8.832031 7.167969 16 16 16s16-7.167969 16-16v-16h16c8.832031 0 16-7.167969 16-16s-7.167969-16-16-16zm0 0"/></g></svg>